<?xml version="1.0" encoding="UTF-8" standalone="no"?>
<!-- Created with Inkscape (http://www.inkscape.org/) -->

<svg
   width="27.023176mm"
   height="27.023176mm"
   viewBox="0 0 27.023176 27.023176"
   version="1.1"
   id="svg5"
   inkscape:version="1.1.1 (3bf5ae0d25, 2021-09-20)"
   sodipodi:docname="letters.svg"
   xmlns:inkscape="http://www.inkscape.org/namespaces/inkscape"
   xmlns:sodipodi="http://sodipodi.sourceforge.net/DTD/sodipodi-0.dtd"
   xmlns="http://www.w3.org/2000/svg"
   xmlns:svg="http://www.w3.org/2000/svg">
  <sodipodi:namedview
     id="namedview7"
     pagecolor="#ffffff"
     bordercolor="#666666"
     borderopacity="1.0"
     inkscape:pageshadow="2"
     inkscape:pageopacity="0.0"
     inkscape:pagecheckerboard="0"
     inkscape:document-units="mm"
     showgrid="false"
     inkscape:zoom="1.8101934"
     inkscape:cx="74.577667"
     inkscape:cy="24.583009"
     inkscape:window-width="1920"
     inkscape:window-height="1126"
     inkscape:window-x="3840"
     inkscape:window-y="50"
     inkscape:window-maximized="1"
     inkscape:current-layer="layer1" />
  <defs
     id="defs2">
    <rect
       x="-7.0500674"
       y="72.959572"
       width="45.286415"
       height="56.175182"
       id="rect4210" />
    <rect
       x="-7.0500674"
       y="72.959572"
       width="45.286415"
       height="56.175182"
       id="rect4210-1" />
    <rect
       x="-7.0500674"
       y="72.959572"
       width="45.286415"
       height="56.175182"
       id="rect4210-6" />
    <rect
       x="-7.0500674"
       y="72.959572"
       width="45.286415"
       height="56.175182"
       id="rect4210-5" />
    <rect
       x="-7.0500674"
       y="72.959572"
       width="45.286415"
       height="56.175182"
       id="rect4210-4" />
    <rect
       x="-7.0500674"
       y="72.959572"
       width="45.286415"
       height="56.175182"
       id="rect4210-8" />
    <rect
       x="-7.0500674"
       y="72.959572"
       width="45.286415"
       height="56.175182"
       id="rect4210-2" />
    <rect
       x="-7.0500674"
       y="72.959572"
       width="45.286415"
       height="56.175182"
       id="rect4210-26" />
    <rect
       x="-7.0500674"
       y="72.959572"
       width="45.286415"
       height="56.175182"
       id="rect4210-48" />
    <rect
       x="-7.0500674"
       y="72.959572"
       width="45.286415"
       height="56.175182"
       id="rect4210-261" />
    <rect
       x="-7.0500674"
       y="72.959572"
       width="45.286415"
       height="56.175182"
       id="rect4210-9" />
    <rect
       x="-7.0500674"
       y="72.959572"
       width="45.286415"
       height="56.175182"
       id="rect4210-59" />
    <rect
       x="-7.0500674"
       y="72.959572"
       width="45.286415"
       height="56.175182"
       id="rect4210-63" />
    <rect
       x="-7.0500674"
       y="72.959572"
       width="45.286415"
       height="56.175182"
       id="rect4210-93" />
    <rect
       x="-7.0500674"
       y="72.959572"
       width="45.286415"
       height="56.175182"
       id="rect4210-638" />
    <rect
       x="-7.0500674"
       y="72.959572"
       width="45.286415"
       height="56.175182"
       id="rect4210-10" />
    <rect
       x="-7.0500674"
       y="72.959572"
       width="45.286415"
       height="56.175182"
       id="rect4210-3" />
    <rect
       x="-7.0500674"
       y="72.959572"
       width="45.286415"
       height="56.175182"
       id="rect4210-7" />
    <rect
       x="-7.0500674"
       y="72.959572"
       width="45.286415"
       height="56.175182"
       id="rect4210-75" />
    <rect
       x="-7.0500674"
       y="72.959572"
       width="45.286415"
       height="56.175182"
       id="rect4210-33" />
    <rect
       x="-7.0500674"
       y="72.959572"
       width="45.286415"
       height="56.175182"
       id="rect4210-77" />
    <rect
       x="-7.0500674"
       y="72.959572"
       width="45.286415"
       height="56.175182"
       id="rect4210-0" />
    <rect
       x="-7.0500674"
       y="72.959572"
       width="45.286415"
       height="56.175182"
       id="rect4210-92" />
    <rect
       x="-7.0500674"
       y="72.959572"
       width="45.286415"
       height="56.175182"
       id="rect4210-28" />
    <rect
       x="-7.0500674"
       y="72.959572"
       width="45.286415"
       height="56.175182"
       id="rect4210-51" />
    <rect
       x="-7.0500674"
       y="72.959572"
       width="45.286415"
       height="56.175182"
       id="rect4210-58" />
  </defs>
  <g
     inkscape:label="Calque 1"
     inkscape:groupmode="layer"
     id="layer1"
     transform="translate(-28.586781,-154.64133)">
    <g
       id="g12136">
      <rect
         style="opacity:0.998;fill:#75507b;stroke:none;stroke-width:1;stroke-linecap:round;stroke-linejoin:bevel;paint-order:fill markers stroke"
         id="background"
         width="27.023176"
         height="27.023176"
         x="28.586781"
         y="154.64133"
         rx="1.2688782"
         ry="1.2688782" />
      <g
         aria-label="Z"
         transform="matrix(0.59669639,0,0,0.59669639,39.120714,111.15584)"
         id="letter"
         style="font-size:40px;line-height:1.25;white-space:pre;shape-inside:url(#rect4210-58);stroke-width:0.443413">
        <path
           d="M -5.0976562,84.388244 V 81.302306 H 14.707031 v 2.734375 L -0.91796875,106.6734 H 15.332031 v 3.06641 H -5.3515625 v -2.8125 L 10.234375,84.388244 Z"
           style="font-family:Roboto;-inkscape-font-specification:Roboto"
           id="path175199" />
      </g>
      <path
         id="points"
         style="font-size:6.39338px;line-height:1.25;font-family:Roboto;-inkscape-font-specification:Roboto;stroke-width:0.999999"
         d="m 201.95312,657.07031 c -1.63244,0 -2.93576,0.54749 -3.9121,1.64063 -0.97635,1.08525 -1.46485,3.04119 -1.46485,5.86914 v 2.91211 c 0.0312,2.71702 0.53538,4.6217 1.51172,5.71484 0.98416,1.09317 2.27966,1.64063 3.88867,1.64063 1.65588,0 2.96506,-0.56267 3.92578,-1.6875 0.96854,-1.12484 1.45313,-3.10555 1.45313,-5.94141 v -2.91211 c -0.0312,-2.70914 -0.53147,-4.58905 -1.5,-5.64258 -0.96853,-1.06147 -2.2699,-1.59375 -3.90235,-1.59375 z m -12.00781,0.14258 -6.19922,2.37695 v 1.98438 l 4.3711,-1.61524 v 14.6504 h 2.16601 v -17.39649 z m 12.00781,1.65234 c 1.05445,0 1.85559,0.40491 2.40235,1.21289 0.54675,0.80797 0.82031,2.18612 0.82031,4.13477 v 3.45703 c -0.008,1.89319 -0.28137,3.26373 -0.82031,4.11133 -0.53113,0.83966 -1.32445,1.25977 -2.37891,1.25977 -1.03101,0 -1.82825,-0.42772 -2.39062,-1.28321 -0.55457,-0.85553 -0.83008,-2.25077 -0.83008,-4.18359 v -3.52734 c 0.0156,-1.88531 0.29504,-3.22164 0.8418,-4.00586 0.55456,-0.78421 1.34007,-1.17579 2.35546,-1.17579 z"
         transform="scale(0.26458333)" />
    </g>
  </g>
</svg>
