<?xml version="1.0" encoding="UTF-8" standalone="no"?>
<svg
   width="100"
   height="100"
   version="1.1"
   id="svg12"
   xmlns="http://www.w3.org/2000/svg"
   xmlns:svg="http://www.w3.org/2000/svg">
  <defs
     id="defs16" />
  <rect
     x="0"
     y="0"
     width="100"
     height="100"
     ry="5"
     rx="5"
     stroke-width="{{BORDER_WIDTH}}px"
     stroke="{{BORDER_COLOR}}"
     fill-opacity="{{BACKGROUND_OPACITY}}"
     fill="{{BACKGROUND_COLOR}}"
     id="rect2" />
  <g
     fill="{{FOREGROUND_COLOR}}"
     id="g6">
    <g
       aria-label="O"
       id="text4"
       style="font-size:70px;dominant-baseline:central;text-anchor:middle">
      <path
         d="m 73.874512,45.001051 q 0,7.553711 -2.905274,13.227539 -2.871093,5.673828 -8.271484,8.71582 -5.400391,3.041993 -12.749024,3.041993 -7.416992,0 -12.817382,-3.007813 -5.366211,-3.007812 -8.203125,-8.681641 -2.836914,-5.708007 -2.836914,-13.295898 0,-11.552734 6.323242,-18.046875 6.323242,-6.52832 17.602539,-6.52832 7.348633,0 12.749023,2.939453 5.400391,2.905273 8.237305,8.476562 2.871094,5.571289 2.871094,13.15918 z m -6.665039,0 q 0,-8.989258 -4.511719,-14.116211 -4.477539,-5.126953 -12.680664,-5.126953 -8.271485,0 -12.783203,5.058594 -4.511719,5.058593 -4.511719,14.18457 0,9.057617 4.545898,14.389648 4.580079,5.297852 12.680664,5.297852 8.339844,0 12.783204,-5.126953 4.477539,-5.161133 4.477539,-14.560547 z"
         style="font-size:70px;dominant-baseline:central;text-anchor:middle"
         id="path18" />
    </g>
  </g>
  <g
     x="60%"
     y="90%"
     fill="{{FOREGROUND_COLOR}}"
     fill-opacity="{{POINTS_OPACITY}}"
     id="g10">
    <g
       aria-label="1"
       id="text8"
       style="font-size:25px">
      <path
         d="M 1.9042969,0 V -1.8676758 H 6.2866211 V -15.100098 l -3.8818359,2.770996 v -2.075195 l 4.0649414,-2.79541 H 8.4960938 V -1.8676758 H 12.683105 V 0 Z"
         style="font-size:25px"
         id="path21" />
    </g>
  </g>
</svg>
