<?xml version="1.0" encoding="UTF-8" standalone="no"?>
<svg
   width="100"
   height="100"
   version="1.1"
   id="svg12"
   xmlns="http://www.w3.org/2000/svg"
   xmlns:svg="http://www.w3.org/2000/svg">
  <defs
     id="defs16" />
  <rect
     x="0"
     y="0"
     width="100"
     height="100"
     ry="5"
     rx="5"
     stroke-width="{{BORDER_WIDTH}}px"
     stroke="{{BORDER_COLOR}}"
     fill-opacity="{{BACKGROUND_OPACITY}}"
     fill="{{BACKGROUND_COLOR}}"
     id="rect2" />
  <g
     fill="{{FOREGROUND_COLOR}}"
     id="g6">
    <g
       aria-label="D"
       id="text4"
       style="font-size:70px;dominant-baseline:central;text-anchor:middle">
      <path
         d="m 71.92627,44.727613 q 0,7.451172 -2.905274,13.056641 -2.905273,5.571289 -8.237305,8.544922 -5.332031,2.973633 -12.304687,2.973633 H 30.466309 v -48.15918 h 15.927734 q 12.236328,0 18.867187,6.152344 6.66504,6.118164 6.66504,17.43164 z m -6.5625,0 q 0,-8.955078 -4.921875,-13.637695 -4.887696,-4.716797 -14.184571,-4.716797 h -9.262695 v 37.700196 h 10.732422 q 5.297851,0 9.296875,-2.324219 4.033203,-2.324219 6.186523,-6.699219 2.153321,-4.375 2.153321,-10.322266 z"
         style="font-size:70px;dominant-baseline:central;text-anchor:middle"
         id="path18" />
    </g>
  </g>
  <g
     x="60%"
     y="90%"
     fill="{{FOREGROUND_COLOR}}"
     fill-opacity="{{POINTS_OPACITY}}"
     id="g10">
    <g
       aria-label="2"
       id="text8"
       style="font-size:25px">
      <path
         d="m 1.2573242,0 v -1.550293 q 0.6225586,-1.4282226 1.5136719,-2.5146484 0.9033203,-1.0986328 1.8920898,-1.9775391 0.9887696,-0.8911132 1.953125,-1.6479492 0.9765625,-0.7568359 1.7578125,-1.5136719 0.78125,-0.7568359 1.2573243,-1.5869144 0.4882813,-0.830078 0.4882813,-1.879882 0,-1.416016 -0.8300782,-2.197266 -0.8300781,-0.78125 -2.3071289,-0.78125 -1.4038086,0 -2.319336,0.769043 -0.9033203,0.756836 -1.0620117,2.13623 L 1.3549805,-12.95166 q 0.2441406,-2.062988 1.7456054,-3.283692 1.5136719,-1.220703 3.881836,-1.220703 2.6000976,0 3.9916991,1.23291 1.403809,1.220704 1.403809,3.479004 0,1.000977 -0.463867,1.989746 -0.451661,0.98877 -1.354981,1.9775395 -0.9033203,0.9887696 -3.4545898,3.0639649 -1.4038086,1.1474609 -2.2338867,2.0751953 -0.8300782,0.9155273 -1.1962891,1.7700195 H 12.646484 V 0 Z"
         style="font-size:25px"
         id="path21" />
    </g>
  </g>
</svg>
