<?xml version="1.0" encoding="UTF-8" standalone="no"?>
<svg
   width="100"
   height="100"
   version="1.1"
   id="svg12"
   xmlns="http://www.w3.org/2000/svg"
   xmlns:svg="http://www.w3.org/2000/svg">
  <defs
     id="defs16" />
  <rect
     x="0"
     y="0"
     width="100"
     height="100"
     ry="5"
     rx="5"
     stroke-width="{{BORDER_WIDTH}}px"
     stroke="{{BORDER_COLOR}}"
     fill-opacity="{{BACKGROUND_OPACITY}}"
     fill="{{BACKGROUND_COLOR}}"
     id="rect2" />
  <g
     fill="{{FOREGROUND_COLOR}}"
     id="g6">
    <g
       aria-label="Z"
       id="text4"
       style="font-size:70px;dominant-baseline:central;text-anchor:middle">
      <path
         d="M 69.191895,69.302809 H 30.842285 V 64.415113 L 60.168457,26.47566 H 33.337402 v -5.332031 h 34.248047 v 4.750977 L 38.259277,63.970778 h 30.932618 z"
         style="font-size:70px;dominant-baseline:central;text-anchor:middle"
         id="path18" />
    </g>
  </g>
  <g
     x="60%"
     y="90%"
     fill="{{FOREGROUND_COLOR}}"
     fill-opacity="{{POINTS_OPACITY}}"
     id="g10">
    <g
       aria-label="10"
       id="text8"
       style="font-size:25px">
      <path
         d="M 1.9042969,0 V -1.8676758 H 6.2866211 V -15.100098 l -3.8818359,2.770996 v -2.075195 l 4.0649414,-2.79541 H 8.4960938 V -1.8676758 H 12.683105 V 0 Z"
         style="font-size:25px"
         id="path21" />
      <path
         d="m 26.831055,-8.605957 q 0,4.309082 -1.525879,6.5795898 -1.513672,2.27050783 -4.479981,2.27050783 -2.966308,0 -4.455566,-2.25830083 -1.489258,-2.2583007 -1.489258,-6.5917968 0,-4.431152 1.44043,-6.640625 1.452636,-2.209473 4.577636,-2.209473 3.039551,0 4.479981,2.233887 1.452637,2.233887 1.452637,6.616211 z m -2.233887,0 q 0,-3.723145 -0.866699,-5.395508 -0.854492,-1.672363 -2.832032,-1.672363 -2.026367,0 -2.91748,1.647949 -0.878906,1.647949 -0.878906,5.419922 0,3.6621093 0.891113,5.3588867 0.90332,1.6967773 2.856445,1.6967773 1.940918,0 2.844239,-1.7333984 0.90332,-1.7333984 0.90332,-5.3222656 z"
         style="font-size:25px"
         id="path23" />
    </g>
  </g>
</svg>
