<?xml version="1.0" encoding="UTF-8" standalone="no"?>
<svg
   width="100"
   height="100"
   version="1.1"
   id="svg12"
   xmlns="http://www.w3.org/2000/svg"
   xmlns:svg="http://www.w3.org/2000/svg">
  <defs
     id="defs16" />
  <rect
     x="0"
     y="0"
     width="100"
     height="100"
     ry="5"
     rx="5"
     stroke-width="{{BORDER_WIDTH}}px"
     stroke="{{BORDER_COLOR}}"
     fill-opacity="{{BACKGROUND_OPACITY}}"
     fill="{{BACKGROUND_COLOR}}"
     id="rect2" />
  <g
     fill="{{FOREGROUND_COLOR}}"
     id="g6">
    <g
       aria-label="J"
       id="text4"
       style="font-size:70px;dominant-baseline:central;text-anchor:middle">
      <path
         d="m 48.120117,69.986403 q -12.236328,0 -14.526367,-12.646485 l 6.391602,-1.05957 q 0.615234,3.964844 2.768554,6.186523 2.153321,2.22168 5.400391,2.22168 3.554687,0 5.605469,-2.426758 2.050781,-2.460937 2.050781,-7.177734 V 26.47566 H 46.547852 V 21.143629 H 62.304687 V 54.94734 q 0,7.006836 -3.793945,11.040039 -3.793945,3.999024 -10.390625,3.999024 z"
         style="font-size:70px;dominant-baseline:central;text-anchor:middle"
         id="path18" />
    </g>
  </g>
  <g
     x="60%"
     y="90%"
     fill="{{FOREGROUND_COLOR}}"
     fill-opacity="{{POINTS_OPACITY}}"
     id="g10">
    <g
       aria-label="8"
       id="text8"
       style="font-size:25px">
      <path
         d="m 12.817383,-4.7973633 q 0,2.3803711 -1.513672,3.7109375 -1.5136719,1.33056643 -4.3457032,1.33056643 -2.7587891,0 -4.321289,-1.30615233 -1.550293,-1.3061524 -1.550293,-3.7109375 0,-1.6845703 0.9643555,-2.8320313 0.9643554,-1.1474609 2.4658203,-1.3916015 v -0.048828 Q 3.112793,-9.375 2.2949219,-10.473633 q -0.8056641,-1.098633 -0.8056641,-2.575683 0,-1.965332 1.4648438,-3.186036 1.4770507,-1.220703 3.9550781,-1.220703 2.5390625,0 4.0039063,1.196289 1.477051,1.196289 1.477051,3.234864 0,1.47705 -0.817871,2.575683 -0.817871,1.0986331 -2.2338871,1.3793948 v 0.048828 q 1.6479491,0.2685547 2.5634761,1.4038086 0.915528,1.1230469 0.915528,2.8198242 z m -2.282715,-0.2075195 q 0,-1.5991211 -0.9521485,-2.4047852 -0.9521484,-0.8178711 -2.6733398,-0.8178711 -1.6723633,0 -2.6123047,0.8789063 -0.9399414,0.8666992 -0.9399414,2.3925781 0,3.5522461 3.6254883,3.5522461 1.7944336,0 2.6733398,-0.8544922 Q 10.534668,-3.125 10.534668,-5.0048828 Z m -0.427246,-7.8979492 q 0,-2.917481 -3.1982423,-2.917481 -1.550293,0 -2.3681641,0.732422 -0.805664,0.732422 -0.805664,2.185059 0,1.477051 0.8300781,2.258301 0.8422851,0.7690427 2.368164,0.7690427 1.550293,0 2.3559571,-0.7080077 0.8178712,-0.720215 0.8178712,-2.319336 z"
         style="font-size:25px"
         id="path21" />
    </g>
  </g>
</svg>
