<?xml version="1.0" encoding="UTF-8" standalone="no"?>
<!-- Created with Inkscape (http://www.inkscape.org/) -->

<svg
   width="27.023176mm"
   height="27.023176mm"
   viewBox="0 0 27.023176 27.023176"
   version="1.1"
   id="svg5438"
   inkscape:version="1.1.1 (3bf5ae0d25, 2021-09-20)"
   sodipodi:docname="letter_c.svg"
   xmlns:inkscape="http://www.inkscape.org/namespaces/inkscape"
   xmlns:sodipodi="http://sodipodi.sourceforge.net/DTD/sodipodi-0.dtd"
   xmlns="http://www.w3.org/2000/svg"
   xmlns:svg="http://www.w3.org/2000/svg">
  <sodipodi:namedview
     id="namedview5440"
     pagecolor="#ffffff"
     bordercolor="#666666"
     borderopacity="1.0"
     inkscape:pageshadow="2"
     inkscape:pageopacity="0.0"
     inkscape:pagecheckerboard="0"
     inkscape:document-units="mm"
     showgrid="false"
     fit-margin-top="0"
     fit-margin-left="0"
     fit-margin-right="0"
     fit-margin-bottom="0"
     inkscape:zoom="0.77771465"
     inkscape:cx="-173.58552"
     inkscape:cy="283.52301"
     inkscape:window-width="3840"
     inkscape:window-height="2136"
     inkscape:window-x="0"
     inkscape:window-y="0"
     inkscape:window-maximized="1"
     inkscape:current-layer="layer1" />
  <defs
     id="defs5435" />
  <g
     inkscape:label="Calque 1"
     inkscape:groupmode="layer"
     id="layer1"
     transform="translate(-151.14821,-73.581195)">
    <g
       id="letter_c"
       transform="translate(95.841298,58.472301)">
      <rect
         style="opacity:0.998;fill:#75507b;stroke:none;stroke-width:1;stroke-linecap:round;stroke-linejoin:bevel;paint-order:fill markers stroke"
         id="rect1531"
         width="27.023176"
         height="27.023176"
         x="55.306908"
         y="15.108894"
         rx="1.2688782"
         ry="1.2688782" />
      <g
         aria-label="C"
         transform="matrix(0.59669639,0,0,0.59669639,65.100798,-28.376587)"
         id="g1766"
         style="font-size:40px;line-height:1.25;white-space:pre;shape-inside:url(#rect4210-6);stroke-width:0.443413">
        <path
           d="m 13.417969,100.69684 h 3.75 q -0.429688,4.04297 -3.046875,6.73828 -2.617188,2.69531 -7.7343753,2.69531 -4.9609375,0 -8.0078124,-3.53515 -3.0273438,-3.55469 -3.0859375,-9.433599 v -3.046875 q 0,-5.976562 3.0664062,-9.589843 3.0859375,-3.613282 8.359375,-3.613282 4.824219,0 7.421875,2.65625 2.597656,2.65625 3.027344,6.855469 h -3.75 q -0.429688,-2.96875 -1.914063,-4.6875 -1.484375,-1.738281 -4.785156,-1.738281 -3.7695312,0 -5.72265625,2.773437 -1.953125,2.773438 -1.953125,7.304688 v 2.871094 q 0,4.199222 1.77734375,7.167972 1.7773438,2.94922 5.5664062,2.94922 3.5937501,0 5.0585943,-1.67969 1.484375,-1.67969 1.972656,-4.6875 z"
           style="font-family:Roboto;-inkscape-font-specification:Roboto"
           id="path174716" />
      </g>
      <g
         aria-label="3"
         transform="scale(0.99299137,1.0070581)"
         id="g1533"
         style="font-size:6.39338px;line-height:1.25;stroke-width:0.264583">
        <path
           d="m 78.792579,37.626227 v -0.474508 h 0.424561 q 0.446412,-0.0031 0.664936,-0.224767 0.218524,-0.221646 0.218524,-0.552553 0,-0.799173 -0.792929,-0.799173 -0.368369,0 -0.596258,0.21228 -0.227889,0.209159 -0.227889,0.56504 h -0.577527 q 0,-0.521335 0.383978,-0.886582 0.387099,-0.365247 1.017696,-0.365247 0.614988,0 0.992722,0.327786 0.380856,0.324664 0.380856,0.958383 0,0.252863 -0.171698,0.540066 -0.168575,0.287202 -0.543187,0.446412 0.452656,0.146723 0.61811,0.452657 0.165454,0.305933 0.165454,0.614988 0,0.63684 -0.412074,0.983357 -0.412073,0.346516 -1.027061,0.346516 -0.593136,0 -1.017697,-0.327786 -0.42456,-0.330907 -0.42456,-0.93653 h 0.577527 q 0,0.359003 0.231011,0.574405 0.234132,0.215402 0.633719,0.215402 0.396464,0 0.627475,-0.209158 0.231011,-0.209159 0.231011,-0.633719 0,-0.42456 -0.262229,-0.624354 -0.262228,-0.202915 -0.702397,-0.202915 z"
           style="font-family:Roboto;-inkscape-font-specification:Roboto"
           id="path265366" />
      </g>
    </g>
  </g>
</svg>
