<?xml version="1.0" encoding="UTF-8" standalone="no"?>
<svg
   width="100"
   height="100"
   version="1.1"
   id="svg12"
   xmlns="http://www.w3.org/2000/svg"
   xmlns:svg="http://www.w3.org/2000/svg">
  <defs
     id="defs16" />
  <rect
     x="0"
     y="0"
     width="100"
     height="100"
     ry="5"
     rx="5"
     stroke-width="0px"
     fill="{{BACKGROUND}}"
     id="rect2" />
  <g
     fill="{{LETTER_COLOR}}"
     id="g6">
    <g
       aria-label="S"
       id="text4"
       style="font-size:70px;dominant-baseline:central;text-anchor:middle">
      <path
         d="m 70.131836,56.00691 q 0,6.665039 -5.229492,10.322266 -5.195313,3.657227 -14.663086,3.657227 -17.602539,0 -20.405274,-12.236329 l 6.323243,-1.264648 q 1.09375,4.34082 4.648437,6.391602 3.554688,2.016601 9.672852,2.016601 6.323242,0 9.741211,-2.15332 3.452148,-2.1875 3.452148,-6.391602 0,-2.358398 -1.09375,-3.828125 -1.05957,-1.469726 -3.007813,-2.426758 -1.948242,-0.957031 -4.648437,-1.606445 -2.700195,-0.649414 -5.981445,-1.401367 -5.708008,-1.264649 -8.681641,-2.529297 -2.939453,-1.264648 -4.648437,-2.802734 -1.708985,-1.572266 -2.631836,-3.657227 -0.888672,-2.084961 -0.888672,-4.785156 0,-6.186524 4.716797,-9.536133 4.750976,-3.349609 13.569336,-3.349609 8.203125,0 12.543945,2.529297 4.34082,2.495117 6.083984,8.544921 l -6.425781,1.12793 q -1.05957,-3.828125 -4.033203,-5.537109 -2.973633,-1.743164 -8.237305,-1.743164 -5.776367,0 -8.818359,1.914062 -3.041992,1.914063 -3.041992,5.708008 0,2.22168 1.162109,3.691406 1.196289,1.435547 3.417969,2.460938 2.221679,0.991211 8.852539,2.460937 2.221679,0.512696 4.409179,1.059571 2.22168,0.512695 4.238282,1.264648 2.016601,0.717773 3.759765,1.708984 1.777344,0.991211 3.076172,2.426758 1.298828,1.435547 2.016602,3.383789 0.751953,1.948242 0.751953,4.580078 z"
         style="font-size:70px;dominant-baseline:central;text-anchor:middle"
         id="path18" />
    </g>
  </g>
  <g
     fill="{{POINTS_COLOR}}"
     id="g10">
    <g
       aria-label="10"
       id="text8"
       style="font-size:25px">
      <path
         d="m 61.904301,90 v -1.867676 h 4.382324 V 74.899902 l -3.881836,2.770996 v -2.075195 l 4.064941,-2.79541 h 2.026368 v 15.332031 h 4.187011 V 90 Z"
         style="font-size:25px"
         id="path21" />
      <path
         d="m 86.831059,81.394043 q 0,4.309082 -1.525879,6.57959 -1.513672,2.270508 -4.479981,2.270508 -2.966308,0 -4.455566,-2.258301 -1.489258,-2.258301 -1.489258,-6.591797 0,-4.431152 1.44043,-6.640625 1.452636,-2.209473 4.577636,-2.209473 3.039551,0 4.479981,2.233887 1.452637,2.233887 1.452637,6.616211 z m -2.233887,0 q 0,-3.723145 -0.866699,-5.395508 -0.854493,-1.672363 -2.832032,-1.672363 -2.026367,0 -2.91748,1.647949 -0.878906,1.647949 -0.878906,5.419922 0,3.662109 0.891113,5.358887 0.90332,1.696777 2.856445,1.696777 1.940918,0 2.844238,-1.733398 0.903321,-1.733399 0.903321,-5.322266 z"
         style="font-size:25px"
         id="path23" />
    </g>
  </g>
</svg>
