<?xml version="1.0" encoding="UTF-8" standalone="no"?>
<svg
   width="100"
   height="100"
   version="1.1"
   id="svg12"
   xmlns="http://www.w3.org/2000/svg"
   xmlns:svg="http://www.w3.org/2000/svg">
  <defs
     id="defs16" />
  <rect
     x="0"
     y="0"
     width="100"
     height="100"
     ry="5"
     rx="5"
     stroke-width="{{BORDER_WIDTH}}px"
     stroke="{{BORDER_COLOR}}"
     fill-opacity="{{BACKGROUND_OPACITY}}"
     fill="{{BACKGROUND_COLOR}}"
     id="rect2" />
  <g
     fill="{{FOREGROUND_COLOR}}"
     id="g6">
    <g
       aria-label="W"
       id="text4"
       style="font-size:70px;dominant-baseline:central;text-anchor:middle">
      <path
         d="M 68.61084,69.302809 H 60.817871 L 52.478027,38.711988 q -0.820312,-2.871093 -2.392578,-10.288085 -0.888672,3.964843 -1.503906,6.630859 -0.615234,2.666016 -9.331055,34.248047 H 31.45752 L 17.272949,21.143629 h 6.801758 l 8.647461,30.59082 q 1.538086,5.742188 2.836914,11.826172 0.820313,-3.759765 1.879883,-8.203125 1.09375,-4.443359 9.501953,-34.213867 h 6.254883 l 8.374023,29.975586 q 1.914063,7.348633 3.007813,12.441406 l 0.307617,-1.196289 q 0.922851,-3.930664 1.503906,-6.391601 0.581055,-2.495118 9.604492,-34.829102 h 6.801758 z"
         style="font-size:70px;dominant-baseline:central;text-anchor:middle"
         id="path18" />
    </g>
  </g>
  <g
     x="60%"
     y="90%"
     fill="{{FOREGROUND_COLOR}}"
     fill-opacity="{{POINTS_OPACITY}}"
     id="g10">
    <g
       aria-label="10"
       id="text8"
       style="font-size:25px">
      <path
         d="M 1.9042969,0 V -1.8676758 H 6.2866211 V -15.100098 l -3.8818359,2.770996 v -2.075195 l 4.0649414,-2.79541 H 8.4960938 V -1.8676758 H 12.683105 V 0 Z"
         style="font-size:25px"
         id="path21" />
      <path
         d="m 26.831055,-8.605957 q 0,4.309082 -1.525879,6.5795898 -1.513672,2.27050783 -4.479981,2.27050783 -2.966308,0 -4.455566,-2.25830083 -1.489258,-2.2583007 -1.489258,-6.5917968 0,-4.431152 1.44043,-6.640625 1.452636,-2.209473 4.577636,-2.209473 3.039551,0 4.479981,2.233887 1.452637,2.233887 1.452637,6.616211 z m -2.233887,0 q 0,-3.723145 -0.866699,-5.395508 -0.854492,-1.672363 -2.832032,-1.672363 -2.026367,0 -2.91748,1.647949 -0.878906,1.647949 -0.878906,5.419922 0,3.6621093 0.891113,5.3588867 0.90332,1.6967773 2.856445,1.6967773 1.940918,0 2.844239,-1.7333984 0.90332,-1.7333984 0.90332,-5.3222656 z"
         style="font-size:25px"
         id="path23" />
    </g>
  </g>
</svg>
