<?xml version="1.0" encoding="UTF-8" standalone="no"?>
<!-- Created with Inkscape (http://www.inkscape.org/) -->

<svg
   width="27.023176mm"
   height="27.023176mm"
   viewBox="0 0 27.023176 27.023176"
   version="1.1"
   id="svg9439"
   inkscape:version="1.1.1 (3bf5ae0d25, 2021-09-20)"
   sodipodi:docname="letter_s.svg"
   xmlns:inkscape="http://www.inkscape.org/namespaces/inkscape"
   xmlns:sodipodi="http://sodipodi.sourceforge.net/DTD/sodipodi-0.dtd"
   xmlns="http://www.w3.org/2000/svg"
   xmlns:svg="http://www.w3.org/2000/svg">
  <sodipodi:namedview
     id="namedview9441"
     pagecolor="#ffffff"
     bordercolor="#666666"
     borderopacity="1.0"
     inkscape:pageshadow="2"
     inkscape:pageopacity="0.0"
     inkscape:pagecheckerboard="0"
     inkscape:document-units="mm"
     showgrid="false"
     fit-margin-top="0"
     fit-margin-left="0"
     fit-margin-right="0"
     fit-margin-bottom="0"
     inkscape:zoom="0.77771465"
     inkscape:cx="51.432746"
     inkscape:cy="50.789837"
     inkscape:window-width="3840"
     inkscape:window-height="2136"
     inkscape:window-x="0"
     inkscape:window-y="0"
     inkscape:window-maximized="1"
     inkscape:current-layer="layer1" />
  <defs
     id="defs9436" />
  <g
     inkscape:label="Calque 1"
     inkscape:groupmode="layer"
     id="layer1"
     transform="translate(-91.612123,-134.98841)">
    <g
       id="g9345"
       transform="translate(97.809278,19.391755)">
      <rect
         style="opacity:0.998;fill:#75507b;stroke:none;stroke-width:1;stroke-linecap:round;stroke-linejoin:bevel;paint-order:fill markers stroke"
         id="background"
         width="27.023176"
         height="27.023176"
         x="-6.197155"
         y="115.59666"
         rx="1.2688782"
         ry="1.2688782" />
      <g
         aria-label="S"
         transform="matrix(0.59669639,0,0,0.59669639,4.4125306,72.111176)"
         id="letter"
         style="font-size:40px;line-height:1.25;white-space:pre;shape-inside:url(#rect4210-75);stroke-width:0.443413">
        <path
           d="m 11.40625,102.55231 q 0,-1.95313 -1.328125,-3.125004 -1.3085937,-1.171875 -5.5273438,-2.402343 -4.21874995,-1.25 -6.6796875,-3.164063 -2.4414062,-1.933594 -2.4414062,-5.214844 0,-3.320312 2.6367188,-5.527343 2.65624995,-2.207032 7.0312499,-2.207032 4.8046876,0 7.4023438,2.636719 2.617188,2.636719 2.617188,5.957031 h -3.75 q 0,-2.382812 -1.5429692,-3.945312 -1.5429688,-1.5625 -4.7265626,-1.5625 -3.0078124,0 -4.45312495,1.328125 -1.4453125,1.308594 -1.4453125,3.28125 0,1.777344 1.5234375,2.96875 1.54296875,1.171875 4.99999995,2.148437 4.9414068,1.386719 7.2070318,3.4375 2.265625,2.03125 2.265625,5.351559 0,3.47657 -2.714844,5.54688 -2.714844,2.07031 -7.2070315,2.07031 -2.6171875,0 -5.09765625,-0.97656 -2.46093755,-0.97656 -4.06250005,-2.89063 -1.5820312,-1.93359 -1.5820312,-4.76562 h 3.75 q 0,2.91016 2.12890625,4.23828 2.12890625,1.32813 4.86328125,1.32813 2.9492188,0 4.53125,-1.21094 1.6015625,-1.23047 1.6015625,-3.30078 z"
           style="font-family:Roboto;-inkscape-font-specification:Roboto"
           id="path175052" />
      </g>
      <g
         aria-label="1"
         transform="scale(0.99299137,1.0070581)"
         id="points"
         style="font-size:6.39338px;line-height:1.25;stroke-width:0.264583">
        <path
           d="m 18.648577,134.6205 v 4.57027 H 18.07105 v -3.84914 l -1.164419,0.42456 v -0.52134 l 1.651415,-0.62435 z"
           style="font-family:Roboto;-inkscape-font-specification:Roboto"
           id="path265470" />
      </g>
    </g>
  </g>
</svg>
