<?xml version="1.0" encoding="UTF-8" standalone="no"?>
<svg
   width="100"
   height="100"
   version="1.1"
   id="svg12"
   xmlns="http://www.w3.org/2000/svg"
   xmlns:svg="http://www.w3.org/2000/svg">
  <defs
     id="defs16" />
  <rect
     x="0"
     y="0"
     width="100"
     height="100"
     ry="5"
     rx="5"
     stroke-width="{{BORDER_WIDTH}}px"
     stroke="{{BORDER_COLOR}}"
     fill-opacity="{{BACKGROUND_OPACITY}}"
     fill="{{BACKGROUND_COLOR}}"
     id="rect2" />
  <g
     fill="{{FOREGROUND_COLOR}}"
     id="g6">
    <g
       aria-label="B"
       id="text4"
       style="font-size:70px;dominant-baseline:central;text-anchor:middle">
      <path
         d="m 69.65332,55.733473 q 0,6.425781 -4.682617,10.014648 -4.682617,3.554688 -13.022461,3.554688 H 32.397461 v -48.15918 h 17.5 q 16.953125,0 16.953125,11.689453 0,4.272461 -2.392578,7.177735 -2.392578,2.905273 -6.767578,3.896484 5.742187,0.683594 8.852539,3.862305 3.110351,3.144531 3.110351,7.963867 z m -6.596679,-0.512695 q 0,-8.510743 -11.962891,-8.510743 H 38.925781 v 17.363282 h 12.680664 q 5.981446,0 8.715821,-2.22168 2.734375,-2.22168 2.734375,-6.630859 z M 60.288086,33.619215 q 0,-3.896484 -2.666016,-5.571289 -2.666015,-1.674805 -7.724609,-1.674805 h -10.97168 v 15.244141 h 10.97168 q 5.229492,0 7.792969,-1.948242 2.597656,-1.982422 2.597656,-6.049805 z"
         style="font-size:70px;dominant-baseline:central;text-anchor:middle"
         id="path18" />
    </g>
  </g>
  <g
     x="60%"
     y="90%"
     fill="{{FOREGROUND_COLOR}}"
     fill-opacity="{{POINTS_OPACITY}}"
     id="g10">
    <g
       aria-label="3"
       id="text8"
       style="font-size:25px">
      <path
         d="m 12.805176,-4.7485352 q 0,2.3803711 -1.513672,3.6865235 -1.513672,1.30615233 -4.3212892,1.30615233 -2.6123046,0 -4.1748046,-1.17187501 Q 1.2451172,-2.1118164 0.95214844,-4.4189453 L 3.2226563,-4.6264648 q 0.4394531,3.0517578 3.7475585,3.0517578 1.6601563,0 2.6000977,-0.8178711 0.9521485,-0.8178711 0.9521485,-2.4291992 0,-1.4038086 -1.0864258,-2.1850586 Q 8.3618164,-7.800293 6.3232422,-7.800293 H 5.078125 v -1.9042968 h 1.1962891 q 1.8066406,0 2.7954101,-0.7812502 1.0009768,-0.793457 1.0009768,-2.185058 0,-1.379395 -0.8178713,-2.172852 -0.8056641,-0.805664 -2.4047852,-0.805664 -1.4526367,0 -2.355957,0.744629 -0.8911133,0.744629 -1.0375977,2.099609 l -2.2094726,-0.170898 q 0.2441406,-2.111817 1.7456055,-3.295899 1.5136718,-1.184082 3.8818359,-1.184082 2.5878906,0 4.0161134,1.208496 1.44043,1.196289 1.44043,3.344727 0,1.647949 -0.927735,2.685547 -0.915527,1.0253905 -2.6733397,1.3916014 v 0.048828 q 1.9287107,0.2075196 3.0029297,1.2939453 1.074219,1.0864258 1.074219,2.734375 z"
         style="font-size:25px"
         id="path21" />
    </g>
  </g>
</svg>
