<?xml version="1.0" encoding="UTF-8" standalone="no"?>
<!-- Created with Inkscape (http://www.inkscape.org/) -->

<svg
   width="27.023176mm"
   height="27.023176mm"
   viewBox="0 0 27.023176 27.023176"
   version="1.1"
   id="svg8856"
   inkscape:version="1.1.1 (3bf5ae0d25, 2021-09-20)"
   sodipodi:docname="letter_q.svg"
   xmlns:inkscape="http://www.inkscape.org/namespaces/inkscape"
   xmlns:sodipodi="http://sodipodi.sourceforge.net/DTD/sodipodi-0.dtd"
   xmlns="http://www.w3.org/2000/svg"
   xmlns:svg="http://www.w3.org/2000/svg">
  <sodipodi:namedview
     id="namedview8858"
     pagecolor="#ffffff"
     bordercolor="#666666"
     borderopacity="1.0"
     inkscape:pageshadow="2"
     inkscape:pageopacity="0.0"
     inkscape:pagecheckerboard="0"
     inkscape:document-units="mm"
     showgrid="false"
     fit-margin-top="0"
     fit-margin-left="0"
     fit-margin-right="0"
     fit-margin-bottom="0"
     inkscape:zoom="0.77771465"
     inkscape:cx="51.432746"
     inkscape:cy="50.789837"
     inkscape:window-width="3840"
     inkscape:window-height="2136"
     inkscape:window-x="0"
     inkscape:window-y="0"
     inkscape:window-maximized="1"
     inkscape:current-layer="layer1" />
  <defs
     id="defs8853" />
  <g
     inkscape:label="Calque 1"
     inkscape:groupmode="layer"
     id="layer1"
     transform="translate(-91.612123,-134.98841)">
    <g
       id="g4539"
       transform="translate(-53.219038,52.484368)">
      <rect
         style="opacity:0.998;fill:#75507b;stroke:none;stroke-width:1;stroke-linecap:round;stroke-linejoin:bevel;paint-order:fill markers stroke"
         id="background"
         width="27.023176"
         height="27.023176"
         x="144.83116"
         y="82.504044"
         rx="1.2688782"
         ry="1.2688782" />
      <g
         aria-label="Q"
         transform="matrix(0.59669639,0,0,0.59669639,154.41527,37.701638)"
         id="g4326"
         style="font-size:40px;line-height:1.25;white-space:pre;shape-inside:url(#rect4210-3);stroke-width:0.443413">
        <path
           d="m 18.066406,112.20074 -2.539062,2.34375 -5.996094,-4.76562 q -1.40625,0.35156 -2.96875,0.35156 -5.0585938,0 -8.2617187,-3.65234 -3.203125,-3.65235 -3.203125,-10.058596 v -1.796875 q 0,-6.386719 3.1835937,-10.039063 3.1835937,-3.671875 8.2421875,-3.671875 5.1562505,0 8.2617185,3.613282 3.125,3.59375 3.183594,9.863281 v 2.03125 q 0,4.101566 -1.308594,7.109376 -1.308593,2.98828 -3.652343,4.66797 z M 14.238281,94.583556 q 0,-5.078125 -2.03125,-7.773437 -2.03125,-2.695313 -5.6835935,-2.695313 -3.4960937,0 -5.60546875,2.695313 -2.08984375,2.695312 -2.08984375,7.773437 v 1.835938 q 0,5.117186 2.109375,7.832036 2.1289063,2.69531 5.625,2.69531 3.671875,0 5.664063,-2.69531 2.011718,-2.71485 2.011718,-7.832036 z"
           style="font-family:Roboto;-inkscape-font-specification:Roboto"
           id="path175010" />
      </g>
      <path
         d="m 170.09582,105.2306 q 0,0.62876 -0.41539,0.96514 -0.41228,0.33639 -1.01986,0.33639 -0.60758,0 -1.02296,-0.33639 -0.41229,-0.33638 -0.41229,-0.96514 0,-0.38355 0.2015,-0.67592 0.20458,-0.29552 0.55177,-0.44642 -0.30068,-0.14775 -0.47738,-0.41813 -0.17359,-0.27036 -0.17359,-0.60675 0,-0.60046 0.37508,-0.92742 0.37819,-0.32695 0.95477,-0.32695 0.57968,0 0.95476,0.32695 0.37819,0.32696 0.37819,0.92742 0,0.33953 -0.17979,0.60991 -0.1798,0.26722 -0.48049,0.41497 0.35029,0.1509 0.55799,0.44642 0.20769,0.29552 0.20769,0.67592 z m -0.67888,-2.13778 q 0,-0.34267 -0.21079,-0.56275 -0.21079,-0.2232 -0.54868,-0.2232 -0.33788,0 -0.54558,0.21378 -0.20769,0.21062 -0.20769,0.57217 0,0.35525 0.20769,0.56903 0.2077,0.21377 0.54868,0.21377 0.33789,0 0.54558,-0.21377 0.21079,-0.21378 0.21079,-0.56903 z m 0.1023,2.1252 q 0,-0.38354 -0.24179,-0.62561 -0.23869,-0.24207 -0.62308,-0.24207 -0.39369,0 -0.62618,0.24207 -0.22939,0.24207 -0.22939,0.62561 0,0.39613 0.22939,0.61619 0.23249,0.22006 0.63238,0.22006 0.39989,0 0.62928,-0.22006 0.22939,-0.22006 0.22939,-0.61619 z"
         style="font-size:6.39338px;line-height:1.25;font-family:Roboto;-inkscape-font-specification:Roboto;stroke-width:0.264583"
         id="path4328" />
    </g>
  </g>
</svg>
