<?xml version="1.0" encoding="UTF-8" standalone="no"?>
<svg
   width="100"
   height="100"
   version="1.1"
   id="svg12"
   xmlns="http://www.w3.org/2000/svg"
   xmlns:svg="http://www.w3.org/2000/svg">
  <defs
     id="defs16" />
  <rect
     x="0"
     y="0"
     width="100"
     height="100"
     ry="5"
     rx="5"
     stroke-width="0px"
     fill="{{BACKGROUND}}"
     id="rect2" />
  <g
     fill="{{LETTER_COLOR}}"
     id="g6">
    <g
       aria-label="F"
       id="text4"
       style="font-size:70px;dominant-baseline:central;text-anchor:middle">
      <path
         d="m 40.891113,26.47566 v 17.910157 h 26.865235 v 5.40039 H 40.891113 v 19.516602 h -6.52832 V 21.143629 H 68.57666 v 5.332031 z"
         style="font-size:70px;dominant-baseline:central;text-anchor:middle"
         id="path18" />
    </g>
  </g>
  <g
     fill="{{POINTS_COLOR}}"
     id="g10">
    <g
       aria-label="10"
       id="text8"
       style="font-size:25px">
      <path
         d="m 61.904301,90 v -1.867676 h 4.382324 V 74.899902 l -3.881836,2.770996 v -2.075195 l 4.064941,-2.79541 h 2.026368 v 15.332031 h 4.187011 V 90 Z"
         style="font-size:25px"
         id="path21" />
      <path
         d="m 86.831059,81.394043 q 0,4.309082 -1.525879,6.57959 -1.513672,2.270508 -4.479981,2.270508 -2.966308,0 -4.455566,-2.258301 -1.489258,-2.258301 -1.489258,-6.591797 0,-4.431152 1.44043,-6.640625 1.452636,-2.209473 4.577636,-2.209473 3.039551,0 4.479981,2.233887 1.452637,2.233887 1.452637,6.616211 z m -2.233887,0 q 0,-3.723145 -0.866699,-5.395508 -0.854493,-1.672363 -2.832032,-1.672363 -2.026367,0 -2.91748,1.647949 -0.878906,1.647949 -0.878906,5.419922 0,3.662109 0.891113,5.358887 0.90332,1.696777 2.856445,1.696777 1.940918,0 2.844238,-1.733398 0.903321,-1.733399 0.903321,-5.322266 z"
         style="font-size:25px"
         id="path23" />
    </g>
  </g>
</svg>
