<?xml version="1.0" encoding="UTF-8" standalone="no"?>
<!-- Created with Inkscape (http://www.inkscape.org/) -->

<svg
   width="27.023176mm"
   height="27.023176mm"
   viewBox="0 0 27.023176 27.023176"
   version="1.1"
   id="svg7782"
   inkscape:version="1.1.1 (3bf5ae0d25, 2021-09-20)"
   sodipodi:docname="letter_m.svg"
   xmlns:inkscape="http://www.inkscape.org/namespaces/inkscape"
   xmlns:sodipodi="http://sodipodi.sourceforge.net/DTD/sodipodi-0.dtd"
   xmlns="http://www.w3.org/2000/svg"
   xmlns:svg="http://www.w3.org/2000/svg">
  <sodipodi:namedview
     id="namedview7784"
     pagecolor="#ffffff"
     bordercolor="#666666"
     borderopacity="1.0"
     inkscape:pageshadow="2"
     inkscape:pageopacity="0.0"
     inkscape:pagecheckerboard="0"
     inkscape:document-units="mm"
     showgrid="false"
     fit-margin-top="0"
     fit-margin-left="0"
     fit-margin-right="0"
     fit-margin-bottom="0"
     inkscape:zoom="0.77771465"
     inkscape:cx="-315.02557"
     inkscape:cy="408.24742"
     inkscape:window-width="3840"
     inkscape:window-height="2136"
     inkscape:window-x="0"
     inkscape:window-y="0"
     inkscape:window-maximized="1"
     inkscape:current-layer="layer1" />
  <defs
     id="defs7779" />
  <g
     inkscape:label="Calque 1"
     inkscape:groupmode="layer"
     id="layer1"
     transform="translate(-188.57089,-40.581195)">
    <g
       id="g3619"
       transform="translate(198.51031,-41.164952)">
      <rect
         style="opacity:0.998;fill:#75507b;stroke:none;stroke-width:1;stroke-linecap:round;stroke-linejoin:bevel;paint-order:fill markers stroke"
         id="rect3839"
         width="27.023176"
         height="27.023176"
         x="-9.9394236"
         y="81.746147"
         rx="1.2688782"
         ry="1.2688782" />
      <g
         aria-label="M"
         transform="matrix(0.59669639,0,0,0.59669639,-2.6337109,38.260665)"
         id="g3835"
         style="font-size:40px;line-height:1.25;white-space:pre;shape-inside:url(#rect4210-63);stroke-width:0.443413">
        <path
           d="m 10.410156,104.4859 9.296875,-23.183594 h 4.84375 v 28.437504 h -3.75 V 98.646056 L 21.171875,86.751525 11.816406,109.73981 H 8.9648438 L -0.37109375,86.712463 0,98.646056 V 109.73981 H -3.75 V 81.302306 h 4.84375 z"
           style="font-family:Roboto;-inkscape-font-specification:Roboto"
           id="path174926" />
      </g>
      <g
         aria-label="2"
         transform="scale(0.99299137,1.0070581)"
         id="g3837"
         style="font-size:6.39338px;line-height:1.25;stroke-width:0.264583">
        <path
           d="m 15.655401,104.52719 v 0.4745 h -2.975045 v -0.41519 l 1.542153,-1.71697 q 0.380856,-0.43081 0.51197,-0.68367 0.134236,-0.25286 0.134236,-0.50885 0,-0.33403 -0.209158,-0.57128 -0.206037,-0.23726 -0.583771,-0.23726 -0.455778,0 -0.680545,0.25911 -0.224767,0.25911 -0.224767,0.66494 h -0.577527 q 0,-0.57441 0.377734,-0.98648 0.377733,-0.41208 1.105105,-0.41208 0.643084,0 1.005209,0.33403 0.365247,0.33403 0.365247,0.88034 0,0.39959 -0.246619,0.80542 -0.24662,0.40271 -0.605623,0.79293 l -1.21749,1.32051 z"
           style="font-family:Roboto;-inkscape-font-specification:Roboto"
           id="path265434" />
      </g>
    </g>
  </g>
</svg>
