<svg width="27.023176" height="27.023176" xmlns="http://www.w3.org/2000/svg" version="1.1">

  <!--
     <rect stroke-linejoin="bevel" stroke-linecap="round" fill="#75507b" opacity="0.998" ry="1.26888" rx="1.26888" y="0" x="-0.00001" height="27.02318" width="27.02318" id="rect1059"/> -->
  <g stroke-width="0.44341" id="letter" transform="matrix(0.596696, 0, 0, 0.596696, 0.474997, -28.3766)" aria-label="A">
   <path id="path174674" d="m9.33815,84.41891l10.83985,-28.4375l3.30078,0l10.87891,28.4375l-3.86719,0l-2.71484,-7.44141l-11.89454,0l-2.69531,7.44141l-3.84766,0zm7.67579,-10.52735l9.64843,0l-4.82421,-13.26172l-4.82422,13.26172z"/>
  </g>
  <g stroke-width="0.26458" font-size="6.39338px" id="g1063" transform="translate(-134.478, -73.5812) scale(0.992991, 1.00706)" aria-label="1">
   <path id="path265360" d="m160.06597,93.07363l0,4.57027l-0.57752,0l0,-3.84914l-1.16442,0.42456l0,-0.52134l1.65141,-0.62435l0.09053,0z"/>
  </g>

</svg>
