<?xml version="1.0" encoding="UTF-8" standalone="no"?>
<svg
   width="100"
   height="100"
   version="1.1"
   id="svg12"
   xmlns="http://www.w3.org/2000/svg"
   xmlns:svg="http://www.w3.org/2000/svg">
  <defs
     id="defs16" />
  <rect
     x="0"
     y="0"
     width="100"
     height="100"
     ry="5"
     rx="5"
     stroke-width="{{BORDER_WIDTH}}px"
     stroke="{{BORDER_COLOR}}"
     fill-opacity="{{BACKGROUND_OPACITY}}"
     fill="{{BACKGROUND_COLOR}}"
     id="rect2" />
  <g
     fill="{{FOREGROUND_COLOR}}"
     id="g6">
    <g
       aria-label="U"
       id="text4"
       style="font-size:70px;dominant-baseline:central;text-anchor:middle">
      <path
         d="m 49.709473,69.986403 q -5.913086,0 -10.322266,-2.153321 -4.40918,-2.15332 -6.835937,-6.254883 -2.426758,-4.101562 -2.426758,-9.77539 v -30.65918 h 6.52832 v 30.112305 q 0,6.596679 3.349609,10.014648 3.34961,3.417969 9.672852,3.417969 6.494141,0 10.083008,-3.520508 3.623047,-3.554687 3.623047,-10.356445 V 21.143629 h 6.49414 v 30.043945 q 0,5.844727 -2.495117,10.083008 -2.460937,4.238281 -7.006836,6.494141 -4.511719,2.22168 -10.664062,2.22168 z"
         style="font-size:70px;dominant-baseline:central;text-anchor:middle"
         id="path18" />
    </g>
  </g>
  <g
     x="60%"
     y="90%"
     fill="{{FOREGROUND_COLOR}}"
     fill-opacity="{{POINTS_OPACITY}}"
     id="g10">
    <g
       aria-label="1"
       id="text8"
       style="font-size:25px">
      <path
         d="M 1.9042969,0 V -1.8676758 H 6.2866211 V -15.100098 l -3.8818359,2.770996 v -2.075195 l 4.0649414,-2.79541 H 8.4960938 V -1.8676758 H 12.683105 V 0 Z"
         style="font-size:25px"
         id="path21" />
    </g>
  </g>
</svg>
