<?xml version="1.0" encoding="UTF-8" standalone="no"?>
<svg
   width="100"
   height="100"
   version="1.1"
   id="svg12"
   xmlns="http://www.w3.org/2000/svg"
   xmlns:svg="http://www.w3.org/2000/svg">
  <defs
     id="defs16" />
  <rect
     x="0"
     y="0"
     width="100"
     height="100"
     ry="5"
     rx="5"
     stroke-width="{{BORDER_WIDTH}}px"
     stroke="{{BORDER_COLOR}}"
     fill-opacity="{{BACKGROUND_OPACITY}}"
     fill="{{BACKGROUND_COLOR}}"
     id="rect2" />
  <g
     fill="{{FOREGROUND_COLOR}}"
     id="g6">
    <g
       aria-label="C"
       id="text4"
       style="font-size:70px;dominant-baseline:central;text-anchor:middle">
      <path
         d="m 51.794434,25.757887 q -7.998047,0 -12.441407,5.161133 -4.443359,5.126953 -4.443359,14.082031 0,8.852539 4.614258,14.25293 4.648437,5.366211 12.543945,5.366211 10.117188,0 15.209961,-10.014649 l 5.332031,2.666016 q -2.973633,6.220703 -8.374023,9.467773 -5.366211,3.247071 -12.475586,3.247071 -7.280274,0 -12.612305,-3.007813 -5.297851,-3.041992 -8.100586,-8.647461 -2.768554,-5.639648 -2.768554,-13.330078 0,-11.518555 6.220703,-18.046875 6.220703,-6.52832 17.226562,-6.52832 7.69043,0 12.851563,3.007812 5.161133,3.007813 7.58789,8.920899 l -6.186523,2.050781 q -1.674805,-4.204102 -5.400391,-6.425781 -3.691406,-2.22168 -8.784179,-2.22168 z"
         style="font-size:70px;dominant-baseline:central;text-anchor:middle"
         id="path18" />
    </g>
  </g>
  <g
     x="60%"
     y="90%"
     fill="{{FOREGROUND_COLOR}}"
     fill-opacity="{{POINTS_OPACITY}}"
     id="g10">
    <g
       aria-label="3"
       id="text8"
       style="font-size:25px">
      <path
         d="m 12.805176,-4.7485352 q 0,2.3803711 -1.513672,3.6865235 -1.513672,1.30615233 -4.3212892,1.30615233 -2.6123046,0 -4.1748046,-1.17187501 Q 1.2451172,-2.1118164 0.95214844,-4.4189453 L 3.2226563,-4.6264648 q 0.4394531,3.0517578 3.7475585,3.0517578 1.6601563,0 2.6000977,-0.8178711 0.9521485,-0.8178711 0.9521485,-2.4291992 0,-1.4038086 -1.0864258,-2.1850586 Q 8.3618164,-7.800293 6.3232422,-7.800293 H 5.078125 v -1.9042968 h 1.1962891 q 1.8066406,0 2.7954101,-0.7812502 1.0009768,-0.793457 1.0009768,-2.185058 0,-1.379395 -0.8178713,-2.172852 -0.8056641,-0.805664 -2.4047852,-0.805664 -1.4526367,0 -2.355957,0.744629 -0.8911133,0.744629 -1.0375977,2.099609 l -2.2094726,-0.170898 q 0.2441406,-2.111817 1.7456055,-3.295899 1.5136718,-1.184082 3.8818359,-1.184082 2.5878906,0 4.0161134,1.208496 1.44043,1.196289 1.44043,3.344727 0,1.647949 -0.927735,2.685547 -0.915527,1.0253905 -2.6733397,1.3916014 v 0.048828 q 1.9287107,0.2075196 3.0029297,1.2939453 1.074219,1.0864258 1.074219,2.734375 z"
         style="font-size:25px"
         id="path21" />
    </g>
  </g>
</svg>
