<?xml version="1.0" encoding="UTF-8" standalone="no"?>
<svg
   width="100"
   height="100"
   version="1.1"
   id="svg12"
   xmlns="http://www.w3.org/2000/svg"
   xmlns:svg="http://www.w3.org/2000/svg">
  <defs
     id="defs16" />
  <rect
     x="0"
     y="0"
     width="100"
     height="100"
     ry="5"
     rx="5"
     stroke-width="{{BORDER_WIDTH}}px"
     stroke="{{BORDER_COLOR}}"
     fill-opacity="{{BACKGROUND_OPACITY}}"
     fill="{{BACKGROUND_COLOR}}"
     id="rect2" />
  <g
     fill="{{FOREGROUND_COLOR}}"
     id="g6">
    <g
       aria-label="M"
       id="text4"
       style="font-size:70px;dominant-baseline:central;text-anchor:middle">
      <path
         d="M 67.53418,69.302809 V 37.173903 q 0,-5.332032 0.307617,-10.253907 -1.674805,6.118164 -3.007813,9.570313 l -12.441406,32.8125 H 47.8125 l -12.612305,-32.8125 -1.914062,-5.810547 -1.12793,-3.759766 0.102539,3.793946 0.136719,6.459961 v 32.128906 h -5.810547 v -48.15918 h 8.579102 l 12.817382,33.393555 q 0.683594,2.016601 1.298829,4.34082 0.649414,2.290039 0.854492,3.31543 0.273437,-1.367188 1.127929,-4.135742 0.888672,-2.802735 1.196289,-3.520508 L 65.039062,21.143629 h 8.374024 v 48.15918 z"
         style="font-size:70px;dominant-baseline:central;text-anchor:middle"
         id="path18" />
    </g>
  </g>
  <g
     x="60%"
     y="90%"
     fill="{{FOREGROUND_COLOR}}"
     fill-opacity="{{POINTS_OPACITY}}"
     id="g10">
    <g
       aria-label="2"
       id="text8"
       style="font-size:25px">
      <path
         d="m 1.2573242,0 v -1.550293 q 0.6225586,-1.4282226 1.5136719,-2.5146484 0.9033203,-1.0986328 1.8920898,-1.9775391 0.9887696,-0.8911132 1.953125,-1.6479492 0.9765625,-0.7568359 1.7578125,-1.5136719 0.78125,-0.7568359 1.2573243,-1.5869144 0.4882813,-0.830078 0.4882813,-1.879882 0,-1.416016 -0.8300782,-2.197266 -0.8300781,-0.78125 -2.3071289,-0.78125 -1.4038086,0 -2.319336,0.769043 -0.9033203,0.756836 -1.0620117,2.13623 L 1.3549805,-12.95166 q 0.2441406,-2.062988 1.7456054,-3.283692 1.5136719,-1.220703 3.881836,-1.220703 2.6000976,0 3.9916991,1.23291 1.403809,1.220704 1.403809,3.479004 0,1.000977 -0.463867,1.989746 -0.451661,0.98877 -1.354981,1.9775395 -0.9033203,0.9887696 -3.4545898,3.0639649 -1.4038086,1.1474609 -2.2338867,2.0751953 -0.8300782,0.9155273 -1.1962891,1.7700195 H 12.646484 V 0 Z"
         style="font-size:25px"
         id="path21" />
    </g>
  </g>
</svg>
